# xmcd
#
# Track frame offsets: 
#        150
#        13427
#        25425
#        38327
#        50877
#        64852
#        77120
#        89945
#        100727
#        111262
#        124372
#        135055
#        146642
#        162722
#        174840
#        192002
#        204337
#        215812
#        228262
#        241852
#
# Disc length: 3404 seconds
#
# Revision: 3
# Processed by: cddbd v1.5.2PL0 Copyright (c) Steve Scherf et al.
# Submitted via: ExactAudioCopy v1.0b1
#
DISCID=200d4a14
DTITLE=The Temptations - Lost and Found: You've Got To Earn It
DYEAR=1999
DGENRE=Soul
TTITLE0=What Am I Gonna Do Without You
TTITLE1=Happy Landing
TTITLE2=Love Is What You Make It
TTITLE3=No Time
TTITLE4=Last One Out Is Brokenhearted
TTITLE5=I Can't Think Of A Thing At All
TTITLE6=Camouflage (version 1)
TTITLE7=My Pillow
TTITLE8=Tear Stained Letter
TTITLE9=Forever In My Heart
TTITLE10=You've Got To Earn It (version 2)
TTITLE11=I Know She's Not A Mannequin
TTITLE12=Dinah
TTITLE13=I Now See You Clear Through My Eyes
TTITLE14=Only A Lonely Man Would Know
TTITLE15=Camouflage (version 2)
TTITLE16=Ain't Too Proud To Beg (alternate strings mix)
TTITLE17=That'll Be The Day
TTITLE18=We'll Be Satisfied
TTITLE19=My Girl (live at the fox)
EXTD=YEAR: 1999
EXTT0=
EXTT1=
EXTT2=
EXTT3=
EXTT4=
EXTT5=
EXTT6=
EXTT7=
EXTT8=
EXTT9=
EXTT10=
EXTT11=
EXTT12=
EXTT13=
EXTT14=
EXTT15=
EXTT16=
EXTT17=
EXTT18=
EXTT19=
PLAYORDER=
